<?xml version="1.0" encoding="UTF-8"?>
<svg id="Camada_2" data-name="Camada 2" xmlns="http://www.w3.org/2000/svg" viewBox="0 0 486.93 245.34">
  <defs>
    <style>
      .cls-1 {
        fill: #ccc;
      }

      .cls-1, .cls-2, .cls-3, .cls-4, .cls-5, .cls-6 {
        opacity: .94;
      }

      .cls-2 {
        fill: #d8d8d8;
      }

      .cls-3 {
        fill: #c10007;
      }

      .cls-4 {
        fill: #f3f3f3;
      }

      .cls-5 {
        fill: #f4f4f4;
      }

      .cls-6 {
        fill: #36561a;
      }
    </style>
  </defs>
  <g id="Camada_1-2" data-name="Camada 1">
    <g>
      <path class="cls-6" d="M109.35,92.95c-1.7,1.21-1.08-1.31-2.76,2.44-1.45,3.25-5.19-5.61-6.06-7.39-2.57-5.27-1.9-7.33-3.35-12.85-2.99-11.35-5.95-22.91-10.02-33.92-1.22.01-2.31,6.37-2.99,7.98-3.86,9.07-11.98,14.18-1.38,23.35,1.22,1.06,4.34-.19,2.77,4.03-.8,2.16-4.19.9-5.83,3.16-1.94,2.68-.98,11.41-2.01,14.79-.33,1.09-2.4.43-3.51,1.64-.69.75-.66,2.63-1.52,3.51-2.46,2.53-1.63-1.96-2.59-2.62-3.08-2.13-6.59,1.29-7.37-7.47-.13-1.5,1.04-3.01.98-3.83-.03-.39-3.59-1.52-3.97-6.22-.6-7.34,1.4-8.16-2.15-16.75-2.44-5.9-2.39-5.09-4.13-11.86s-4.99-12.5-6.74-19.24l2.98-.48c-2.05-5.68-5.99-18.86,4.38-17.99,11.34.95,8.87,14.41,9.71,21.38.27,2.23,3.71,13.93,4.83,14.94,3.73,3.33,2.82-1.97,3.49-4.37,2.75-9.73,8.78-20.37,9.52-30.49.26-3.63-5.12-10.14.74-13.2,6.74-3.52,7.03-.04,10.26,3.27,12.78,13.1,6.82,34.03,10.12,50.83.33,1.67.81,7.15,3.35,6.62,1.89-.4,3.1-17.2,3.76-20.23,1.31-6,8.17-27.15,11.29-31.67,2.7-3.91,10.01-7.53,13.49-2.63,3.24,4.57-4.76,17.2-6.36,22.76-2.5,8.65-14.19,59.15-18.96,62.54Z"/>
      <path class="cls-3" d="M110.64,138.14c.43,2.6-.39,1.79-2.16,2.28-4.24,1.17-7.5.23-11.34.71-1.46.18-3.08.77-1.47,2,6.38-1.31,9.55,1.05,14.7,2.78,2.25.76,6.05-1.2,5.27,2.21l-39.95,5.02c.17,2.33,1.59,15.43,1.01,15.98-1.23,1.17-5.18-3.34-3.91,5.44.56,3.86,3.07,4.34,5.89,6.55-1.26-6.08,9.7-1.94,13.49-1.92,4.08.02,8.19-1.85,12.48-1.08l-1.99,2.98,8.99,1.02c1.85,5.45-7.31,3.33-8,3.99-.29.28.21,3.9,0,5-2.06,2.11-3.9-2.7-4.14-2.85-.79-.47-15.31,3.8-17.39,4.82-1.2,1.59,1.35,2.69,1.47,4.46.16,2.25-1.9,6.58-.92,9.55l-5.98-2.99,1,10.98c4.94-2.44,9.5-4.31,14.94-5.53,3.5-.79,26.93-4.61,28-3.46,2.79,6.1-7.75,3.81-6.99,7.47.65,3.14,8.04-.36,7.97,3-3.36,2.53-8.74,3.85-12.93,5.05-9.77,2.8-12.74,3.16-21.72,7.5-2.08,1.01-14.81,7.03-15.66,6.97-.5-.03-.57-1.33-1.03-1.61-.75-.47-2.04-.29-2.31-.61-.22-.26-2.14-5.94-2.2-6.35-1.51-10.31-.19-23.8-2.07-33.9-.51-2.71-3.14-3.21-3.67-5.16-2.05-7.51,1.83-27.86-2.87-34.26-1.09-1.48-3.6-1.67-4.24-3.75-.45-1.46-.53-7.33-.06-8.68.6-1.71,3.48-1.63,4.93-3.06,2.87-2.84,1.79-6.63,9.46-6.62,4.59,0,3.45,3.19,4.97,5.04,1.9,2.32,7.77.06,10.93-.03,9.26-.27,18.29.98,27.5,1.05Z"/>
      <path class="cls-4" d="M440.18,64.19c.52,2.74-2.7,1.82-3.07,4.5-.31,2.26,1.32,5.67,1.1,8.96-.28,4.12-3.04,7.44-3.79,11.25-.45,2.29.25,7.03-.4,8.1-.34.55-10.07,3.73-11.32,6.15-1.33-9.46-3.19-1.69-5.48-.5-.49.26-10.03,3.42-10.58,3.49-5.67.68-7.57-2.88-8.02-2.93-.66-.08-1.88.86-2.71.65-1.18-.3-6.38-1.49-6.62-1.73-.48-.5.34-3.61-.03-3.96-.32-.3-2.65.45-3.77-.2-.46-.27-4.48-5.46-7.35-7.2-1.01-.61-2.76-.49-2.87-.6-.6-.59,2.78-4.59-.48-3.98-3.49,3.74-1.36,11.05-1.46,16.52-.04,2.02-.9,3.85-.95,5.85-.05,2.33,1.5,4.85.9,8.09-.71,3.85-3.6,3.28-4.05-.94-.47-4.48.03-15.63-.88-18.96-.27-.99-1.97-.29-2.68-.9-4.97-4.25-6.2-13.27-.93-8.62,1.05.92,1.04,3.56,3.54,2.94-2.79-4.16.1-7.31.64-10.64.26-1.63-.05-3.45.39-5.75.26-1.37,2.05-4.27,1.92-4.5-.16-.29-4.88-2.56-4.92-4.59.67-.95,1.8,1.07,1.98.02.63-3.65-.79-7.07.77-11.21,1.31-3.48,7.67-8.34,8.06-9.97.54-2.28-3.23-7.13,2.14-7.3.17.76-.24,2.75,0,3,1.62,1.64,18.78-9.33,21.72-9.82,3.19-.54,5.7,1.64,7.96,1.62,2.6-.02,3.19-4.9,10.5-1.52,2.67,1.24,5.1,5.95,8.05,7.4,1.37.67,3.42.11,3.7.32,2.2,1.65-3.98,2.18-2,3.99.43.39,2.94-1.3,4.33-.9,4.24,1.22,9.5,18.38,7.65,22.89-.58-.08-1.72-1.38-1.99-1-.53,1.89.6,1.59.99,2ZM417.05,38.39c-.95-.56-2.64-.02-3.83-.18.89,3.53-2.06,8.61.06,11.41,1.1,1.45,2.62,1.35,3.84,2.22,2.24,1.59,3.78,3.02,6.17,4.77,2.21,1.63,4.63,3.03,6.89,4.59-.57-1.33-.72-7.7-1.02-7.97-.36-.34-2.62.41-3.74-.23-.33-.18-4.28-5.28-4.64-5.87-.88-1.45-3.19-8.41-3.74-8.74ZM420.21,87.17c2.2-.65,1.92-3.72,2.98-4.55.74-.57,2.27.31,3.04-.06,4.67-2.21,5.26-7.87,5.96-12.38l-3.98.99c2.46-6.56-.7-2.54-3.61-4.88-1.33-1.07-2.33-6.9-5.89-10.1-2.62-2.35-13.55-8.3-16.77-7.81-2.63.4-12.89,11.97-13.47,14.51-1.09,4.73,1.35,10.09.83,12.64-.15.72-2.06.63-2.1,1.2-.39,6.41,9.11,13.15,14.76,14.19,4.48.83,7.96-.42,12.25-.75l-1,2.98c3.41,1.51,5.31-1.74,5.99-1.99.76-.28,2.38.27,3.93-.52,1.7-.86,3.39-3.74,5.05-4.99,1.46-2.81-7.37,1.17-7.98,1.51Z"/>
      <path class="cls-3" d="M395.25,129.13c1.11.97,7.07-1.24,9.24-.84,2.99.55,3.1,3.02,4.03,3.54,1.93,1.07,4.19.5,6.61,2.89,3.43,3.37,3.62,7.77.56,11.39-1.24,1.47-9.71,1.4-12.01,1.07-5.68-.8-8.48-3.02-15.86-1.99-.66.09-6.33,1.69-6.56,1.95-2.77,3.21,8.03,6.79,10.01,7.47,7.09,2.44,16.34,4.88,22.48,9.48,1.65,1.24,2.51,4,3.48,4.57,1.21.72,4.85-1.7,5.84,2.18.8,3.14-3.02,10.17,3.12,13.26.49-.66-1.17-4.9,1.5-4,.89.3.34,1.47,1.17,2.06.91.65,3.07.7,3.3,1,.25.33-1.02,7.1-1.5,7.9-.76,1.27-5.04,3.22-6.49,5.5-1.82,2.85-.63,6.91-5.96,6.54-1.33,1.44,6.73,7.08,1.38,8.87-4.99,1.66-2.46-2.11-4.28-4.47-3.28-4.25-6.78-.54-9.53-.35-3.28.23-17.71,1.12-19.77.78-.79-.13-13.6-5.71-14.7-6.38-1.52-.92-1.6-2.77-2.28-3.2-2.44-1.52-5.4,0-6.64-5.95-.35-1.69,1.4-.98,1.83-2.06.53-1.36.16-3.25,1.13-4.69,1.36-2.03,5.82-1.11,4.94-6.54,2.36-.66,2.12,1.73,3.3,2.67.77.61,2.53.33,3.2,1.3s.16,2.75.74,3.75c.31.54,8.38,7.67,9.19,8.29.53.41,8.6,3.92,9.09,3.97.95.09,9.86-2.9,10.43-3.49,1.43-1.45,1.19-4.78,2.19-6.84.86-1.76,4.57-3.48,4.68-3.76.6-1.5-7.99-11.21-10.14-12.14-3.32-1.44-5.48-.57-8.73.24,1.15-5.97-2.17-3.34-5.23-5.02-1.11-.61-1.16-2.41-2.38-2.82-2.03-.68-5.11.14-7.63-.39-10.55-2.2-17.22-3.43-19.51-15.51-.63-3.33,3.51-16.24,6.14-18.89,1.05-1.06,4.77-3.22,6.19-3.32,2.69-.17,8.82,1.11,11.77.66,1.74-.26,4.48-2.96,6.43-3.42,9.02-2.13,4.85,4.39,5.22,4.72Z"/>
      <path class="cls-3" d="M287.4,181.1c.55,2.45-2.84,2.65-3.06,3.68-.53,2.41,1.86,4.61,1.83,7.51-.06,6.16-3.82,9.94-4.71,14.35-.49,2.45.88,6.13-1.02,7.98-1.23,1.2-4.2,1.24-5.96,2.03-1.22.55-2.63,3.38-4.04,2.42-.29-.19-.28-3.47-2.5-2.98-.76.17-2.23,2.8-3.55,3.45-.97.47-6.79,2.75-7.89,3.09-6.65,2.06-7.31-1.57-10.69-2.25-3.1-.62-9.36.88-10-4.34l-14.3-12.94c-.87.83-1.65,17.84-1.63,20.64.03,2.98,2.68,10.37,0,11.21-5.62,1.75-2.51-2.5-2.57-5.38-.13-6.22-.2-15.01-.77-21.02-.69-7.22-1.57-3.68-.08-12.01.73-4.07-1.17-7.01,3.04-10.42-4.95-.13-3.37-14.48-1.87-17.38,1.09-2.12,6.22-6.32,6.73-8.35s-1.25-3.96-.42-5.28c1.62-2.57,4.19-.98,4.05,2,.99-1.04,1.89-2.13,3.23-2.77,2.51-1.19,16.82-8.11,17.8-8.18,2.79-.19,6.58,2.32,8.8,2,.67-.1.53-1.83,1.31-2.02,1.26-.32,6.53-.29,7.69.11,1.9.66,1.56,3.85,3.03,4.97,2.3,1.77,3-.84,4.59,2.89,1.39,3.26,1.7,1.61,2,2,.07.09.71,1.45,1,2,.22.41-.25,1.83,0,2.01.5.37,1.89-.84,2.51-.87.33-.02.95,3.08,3.48,1.86,2.64,4.8,2.53,6.72,3.99,11.99.5,3.02-4.69,1.74,0,3.49-.94.81-1.77,1.7-2.02,2.98-.47,2.4,1.02,1.18,2.03,1.52ZM271.42,176.1c-.59-.14-1.4.13-2,0-4.77-1.05-2.38-4.19-3.05-4.94-.16-.18-3.22-.3-4.64-.85-7.64-2.99-10.32-8.85-17.8-1.23-.98,1-8.07,10.06-8.27,10.71-1.48,4.94,1.43,11.28-.04,16.53,3.28,11.41,16.41,13.41,26.8,10.76l-1,2.98c1.89,1.52,12.98-3.73,13.87-6.75.41-1.41-.89-2.1-.89-2.23-.01-.62-.12-1.51,0-2,.66-2.61,4.78-3.7,5.01-4.7.25-1.08.23-6.16-.02-7.29-.26-1.19-1.27-1.42-2-2-2.69-2.14-5.6-1.79-5.93-2.08-.44-.38.14-2.2-.06-2.92,3,.62,1.87-1.48,2-4,2.65.67,2.12,1.46,3,2-3,1.34-2.01,5.41,1.65,2.62.48-.37.22-1.48.35-1.62.39-.42,3.09.54,1.19-4.59-.76-2.05-2.12-1.28-2.19-1.41-.22-.43.48-2.28-.14-2.81s-2.64-.08-3.85-.69c-3.74-1.87-4.91-8.59-7-11.49,4.52-.57.67-.64,0-1-1.91-1.02-2.91-2.81-5.99-2,.97,5.66-3.02,8.66,2.06,12.43,3.68,2.73,8.04,2.49,8.92,8.56ZM280.91,186.1v1c.65-.33.65-.67,0-1ZM279.41,199.1h-2.99s0,1.98,0,1.98c1.38.31,2.65-.54,2.99-1.98Z"/>
      <path class="cls-6" d="M131.61,73.18c2.49-3.05-.82-4.24-.99-6.99,1.6.11,7.64.09,8.02-1.67-.56-5.4,1.89-11.67,1.96-16.82.02-1.69-1.02-3.4-.99-5.01.14-9.53,1.03-17.37,3.01-26.71,1-2.19,6.54-2.35,8.46-.74.3.25,4.82,5.64,4.98,5.99,1.96,4.26-1.87,15.17-2.46,20.49-.7,6.35-.39,13.97-1.02,20.47,15.62.04,20.49,4.6,20.01-13.53-.22-8.41.54-10.74,1.03-17.96.2-2.91-1.67-6.55-1.11-8.75.06-.26,3.49-3.64,3.74-3.73,5.22-1.7,2.84,4.24,3.29,7.99l3.98-1c3,8.29-1.19,17.16-.04,25.54.15,1.1,1.89,7.77,2.24,8.75,1.09,3.12,8.54,2.73,8.78,11.29.06,2.25-1.8,1.52-2.97,2.39-2.11-.39-2.24,1.33-3,2-3.73,3.32-5.35,4.78-4.81,10.23.89,9.02,2.41,7.95-2.39,17.06-.64,1.22-.65,3.57-.79,3.7-.52.47-2.82-1.39-3.8-.86-.39.21-6.89,9.59-6.13,3.43.13-1.03.89-6.22,1.11-6.47.33-.36,1.95.11,2.55-.3,1.35-.93.76-8.76,1.27-10.79-.26-.31-7,3.04-6.99-1.49,0-.85,4.63-1.77,5.02-3.22.64-2.35-.46-6.59-.02-9.29l-24.83,4.14c-.82,1.29.02,13.32-.25,16.24-.23,2.48-1.46,4.75-1.77,7.21-.14,1.13.28,16.61-4.08,13.38-2.53-1.87-4.94-29.9-5-34.97h-5.99c-.31-3.1,2.7-3.14,5-3-.24-2.52-1-7.18-4-6.99-.35.02-.8-.09-1,0ZM179.53,90.17c2.32-2.2,2.13-9.94,1-12.98-2.3.88-2.73,4.37-2.99,6.49-.14,1.14-.62,8.96,1.98,6.49Z"/>
      <path class="cls-3" d="M156.78,125.9c2.67,1.66,7.02-2.49,14.68,2.83,4.86,3.37,11.38,11.82,11.08,17.87-.33,6.65-3.85,6.88-7.92,10.06-1.93,1.51-5.43,8.13-4.55.48-2.03,1.69-3.59,1.08-3.47,4.33.25,6.99,5.18,7.31,5.8,9.29.5,1.57-.3,4.49.3,5.2.31.37,3.49.29,4.92,2.56,1.17,1.86.75,4.12,1.85,6.14,2.66,4.93,8.25,8.64,10.07,13.9-7.47.97-13.71-7.35-18.5-12.47-2.81-3-5.66-7.56-8.49-10.49-.95-.98-1.31-1.89-2.97-1.51.02,6.19.34,12.36-1.04,18.43l2.07,27.04c-.15,2.84-3.9,3.24-4.04,1.95-.07-6.95-1.95-15.13-2.03-21.91s2.82-23.26.51-28.5c-1.53-3.46-12.72-7.14-12.41,1.31.19,5.03-.22,8.63-.14,13.15.07,4.19,4.33,15.58-.41,16.48-7.22,1.38-9.73-1.43-10.33-8.45-.89-10.42,1.06-24.39.79-35.97-.11-4.65.82-11.85.11-15.95-.07-.38-4.97-1.64-5.47-1.61-1.04.06-.99,3.61-3.07,3.02-4.83-5.84-4.45-8.51,2.15-12.82,1.64-1.07,14.09-7.57,15.3-7.76,1.14-.18,12.75.53,13.38.76,1.3.46,1.33,2.3,1.82,2.61ZM156.39,136.32c-2.38-4.13-13.04-2.83-12.88,5.33.04,2.25,1.93,3.41,2.08,5.01.25,2.59-2.22,6.09.07,9.44l9.87-1.04c1.22-1.22-.9-9.53-.82-11.49.09-2.19,3-4.96,1.68-7.25ZM162.57,154.13c-2.73-3.33,7.52-12.91,2.48-13.99-4.31-.92-5.91,10.78-6.49,13.47l4.01.52Z"/>
      <path class="cls-3" d="M292.39,183.1l1.99-11.5c-.32-9.38.13-18.82,3.21-27.76,1.24-3.59,5.12-12.15,8.74-13.27,12.72-3.94,6.2,12.19,5.14,18.16-.44,2.45.21,5.11-.33,7.66-1.95,9.15-8.67,21.33-6.19,30.61.47,1.77,4.4,9.49,5.93,10.08,2.13-4.3,4.98-2.03,2.49,2,2.25,1.44,4.81-.23,6.37-.04.71.09.65,2.02,1.15,2.1,2.88.44,8.08-5.65,10.54-7.47,1.26-.94,3.39-.82,4.64-1.85.56-.46,4.91-10.43,5.1-11.45.46-2.48-.8-4.21-.63-5.75.58-5.41,3.6-12.86.29-17.48l-.5,4.99c-2.25.58-2.36-.89-2.72-2.72-1.01-5.13-1.25-11.22-2.36-16.66-.33-1.62-1.73-2.81-1.91-4.17-.1-.75.73-7.16,1.01-7.42,2.94-2.77,4.3,4.46,2.01,6.51l4.46.49c2.49.18-4.22-8.28-2.48-10,1.48-.63,10.66,2.55,10.99,3.02.29.42-.9,2.26-.73,3.33.68,4.14,3.45,8.4,3.72,11.12,1,10.24.65,34.78-3.2,43.81-.64,1.49-2.57,1.4-2.81,2.37-.58,2.24.9,6.3-.44,8.33-1.24,1.89-6.88,1.56-7.4,2.08-.56.56.01,5.55-2.15,7.34-1.15.95-11.97,5.99-13.69,6.28-7.14,1.22-13.38-.89-18.23-6.26-2.27-2.51-3.93-7.93-5.25-9.25-.83-.83-2.54-.57-3.8-1.96-2.64-2.93-1.31-5.71-2.18-8.53-.71-2.3-3.76-4.31-2.76-7.73.68.23,1.16,1.08,2,1Z"/>
      <path class="cls-6" d="M203.51,109.16c1.23-3.01-1.95-2.89-2-3.51-.24-2.83,1.93-.31,2-2.48-8.22.63-2.12-3.45-.77-6.28,1.1-2.31,3.27-10.37,4.27-11.72.87-1.17,3.26-.88,4.04-1.96.46-.63.24-6.38,2.44-4.03,1.36,1.44-.53,10.76,3.89,7.88.54-.35,5.97-10.32,3.1-11.87,5.29.78,1.67-2.17,2-6-1.41,1.33-3.76,5.5-4.9,1.35-.79-2.89,3.21-4.54,2.52-7.35-1.1-4.47-6.93-13.33-8.98-18.1-2.63-6.12-10.62-23.48-9.41-29.13.74-3.42,4.06-5.7,7.33-3.8,6.25,3.64,19.33,33.42,21.95,34.04,2.38.56,2.3-6.69,3.01-8.97,1.04-3.31,4.61-9.18,5.28-11.77s-1.13-4.89-.16-6.99,2.74-.88,3.18-1.35c1.55-1.66-1.41-10.96,7.75-11.88,4.99-.5,8.66,3.58,8.46,8.47-2.79,20.86-16.55,40.02-24.91,59.22-.79,3.98,6.25,9.29-2.13,8.26l-.99-4c-1.47,4.49-4.51,9.43-7.17,13.31-1.64,2.39-3.65,5.57-5.28,7.71-2.52,3.32-7.58,5.26-7.53,9.95h-1c.39-4.75-3.71.07-5.99,1Z"/>
      <path class="cls-5" d="M349.26,1.25c-.87,3.68,5.93,8.13,6.07,8.66.33,1.2-2.27,6.35-2.97,6.85-3.24,2.3-7.46-1.54-10.51-1.56-1.03,0-7.94.8-8.82,1.02-1.03.26-.97,2.03-1.7,2.49-1.41.89-3.76.34-4.01.53s1.33,4.48.01,5.98c6.28-1.17,4.35,1.4,6.97,4.51,4.95,5.88,11.56,10.11,16.45,17.51,1.47,2.22,1.04,4.47,1.81,5.69.53.84,3.34,1.38,4.21,3.28,1.59,3.48-.43,8.94.67,12.34.52,1.6,3.39,1.11,3.78,5.2.11,1.2-.99,3.08-.84,3.32.2.31,1.95.43,2.39,1.06,3.14,4.48-4.33,3.25-6.48,4.56-1.43.87-2.87,5.95-4.18,7.81-4.83,6.85-6.41,1.48-11.09,2.82-2.17.63-3.15,4.51-6.07,3.81-5.84-3.34-20.9-2.28-22.44-9.71-.53-2.55,1.93-3.92,1.88-5.74,0-.29-5.5-2.41.46-3.5,8.47-1.55,14.06,7.68,19.55,4.52,1.33-.77-1.84-3.53,2.92-2.52l-1.01,1.98c4.83,1.16,7.65-5.86,7.96-9.54.25-3.01,1.01-8.59,1.05-10.92.13-9.22-2.56-6.58-6.67-9.85-2.16-1.72-5.74-6.68-8.39-8.09-7.51-3.98-12.26-3.08-16.96-13-7.05-14.9,3.94-21.79,14-30.11,7.21,1.02,14.78,1.66,21.95.59Z"/>
      <path class="cls-3" d="M25.76,199.09c1.78-.57,3.83-.75,5.05-2.44,3.3-4.55,1.57-8.72,1.96-12.93s4.03-10.08-1.66-13.5c-5.18-3.11-7.4-7-10.98-8.98-4.01-2.22-9.06-2.02-12.91-6.07S-1.12,140.43.25,135.12c1.14-4.45,12.46-16.57,16.51-17.61,2.15-.55,2.81,1.46,4.45,1.55,1.39.07,3.11-1.08,5.01-.96,3.74.24,7.71,1.89,11.86,1,1.54,1.69,1.78,3.99,3.24,5.97.74,1.01,3.21,1.75,3.43,2.59.18.73-3.85,6.07-4.68,6.35-2.69.91-7.7-1.61-10.8-1.67-5.2-.1-8.08,2.57-12.48,3.83,1.26,1.51-.25,5.76-.02,5.95s2.64-.48,4.49,1.01c1.24,1,2.93,4.8,4.57,6.41,1.2,1.18,3.31,1.44,4.92,3.07,2.11,2.12,13.65,18.3,14.51,20.45,1.53,3.84.67,10.08,1.97,13.02.89,2.01,4.76,3.12,5.48,4.52,1.09,2.09-3.03,1.22-3.98,3-1.35,2.53,4.65.05,2.98,3.97-1.09,2.54-5.19.84-6.78,1.71s-2.86,7.19-3.74,8.74c-2.78,4.88-7.12,1.51-10.7,2.2-2.85.55-3.84,3.85-7.18,3.91-3.16.06-5.39-2.22-8.14-2.96-3.88-1.04-13.17-1.25-14.23-6.75-.41-2.15,4.61-5.67-.14-6.84,2.2-3.16,4.76-2.72,8.22-2.24,6.79.95,6.35,5.76,14.74,4.73,1.09-.13,1.55-.86,2-1Z"/>
      <path class="cls-3" d="M480.37,129.9c1.01,1.07,4.04.98,5.22,3.26,3.41,6.57-.38,16.07-3.94,21.98-.79,1.32-6.89,9.21-7.52,9.54-1.69.9-6.53-3.63-10.05.12-4.13,4.41-4.38,15.84-4.85,21.9-.36,4.61-1.11,4.63-1.13,4.94-.05.86,1.47,2.81,1.06,3.43-.6.9-11.45,1.47-11.99,1,3.02-6.38-.83-7.57-2.74-11.74-.61-1.32-.29-3.44-.94-5.03-.45-1.1-1.89-.96-2.24-1.96-1.8-5.14-1.04-17.38,3.98-20.67,2.77-1.82,4.99-.51,7.6-1.29,7.18-2.16,20.1-14.23,20.31-22.24-1.16-1.17-20.13,1.37-22.99,2.48-4.97,1.93-8.13,10.61-14.47,5.52-9.99-8.01.83-15.4,8.95-18.05,6.34-2.07,27.3-4.94,32.47-1.41,2.43,1.66,1.71,6.56,3.27,8.22Z"/>
      <path class="cls-3" d="M199.53,245.05c-1.7-1.13-1.38-27.12-2.07-31.41-.4-2.45-2.47-4.41-2.65-6.18-.3-3.02,3.13-6.15-2.29-5.38,4.13-10.85-1.11-21.26-.72-32.43.33-9.45,3.38-18.12,6.63-26.85,5.73-4.12,9.45,1.02,10.06,6.82.71,6.77-.88,18.3-1,25.97-.31,19.47,1.36,44.83-2.03,63.91-.35,1.99-3.56,7.11-5.93,5.54Z"/>
      <path class="cls-3" d="M472.14,218.07h-3.01c3.11,10.32-15.02,16.56-22.84,13.88.5-4.68-1.11-14.02,1.86-17.4,2.22-2.52,10.49-5.71,11.83-1.75,1.15,3.4-1.49,3.77,5.17,3.27l-1-6.98c2.09-1.9,9.29,6.01,7.99,8.98Z"/>
      <path class="cls-6" d="M210.5,108.16c.05,4.38-.02,8.16-.2,12.52-.1,2.32-1.92,5.24-3.79,3.47-.63-.59,1.25-5.84-.99-5.99-1.62,1.8.22,9.77-2.49,8.97-6.02-1.78-3.35-4.72-3.51-7.98-.14-2.64-1.52-2.27-2-3-2.44-3.75-2.54-4.7,2.68-6.73.55-.21,1.24.76,1.31.73v6.99c5.08,1.2.88-4.05,5.99-3-.8-3.86-2.52-4.82,1.99-5.99h1Z"/>
      <path class="cls-3" d="M421.98,224.85c-1.7,2.99-11.15,3.88-10.7-3.19.81-12.51,15.07-4.53,10.7,3.19Z"/>
      <path class="cls-3" d="M115.3,178.45c5.23,3.43,4.73,8.28,6.32,13.64-2.12,2.05-8.63-6.81-7.82-7.87.21-.27,1.51.03,1.7-.21,1.53-1.9-4.53-4.32-5.85-5.43-.65-2.98,4.86-.66,5.65-.14Z"/>
      <path class="cls-3" d="M53.71,203.08c.22.15.28,2.57.91,3.35.96,1.19,3.4.48,4.03,2.23,2.39,6.59-7.09,5.05-8.54-2.53-.54-2.81,2.16-4.03,3.6-3.04Z"/>
      <path class="cls-6" d="M132.61,73.18c-3.22,10.86-7.92,14.91-7.98,0,2.01-.36,2.67,1.78,4.54,2.06,1.7.25,1.81-1.76,2.45-2.07.19-.09.65.02,1,0Z"/>
      <path class="cls-6" d="M191.53,73.18l5.99-.99c-.44,5.93-4.77,7.85-8.98,2.99.76-.67.89-2.39,3-2Z"/>
      <path class="cls-6" d="M51.71,91.17c.26.29,2.2,6.57,2.08,7.46-.33,2.42-1.8,2.84-4.06,2.53.04-.74-.87-13.13,1.98-9.99Z"/>
      <path class="cls-1" d="M441.18,63.19c1.05.14,3.29-.4,3.87.11.74.66,1.28,7.31,1.12,8.88-3.94.18-2.39-4.17-3.93-6.59-.45-.72-1.62-.94-2.06-1.4-.39-.41-1.52-.1-.99-2,.27-.38,1.4.92,1.99,1Z"/>
      <path class="cls-3" d="M227.22,134.4c.55.54,1.62,3.24,1.26,3.73-4.32,1.92-6.41-.34-5.99-4.98,1.48-.06,3.66.2,4.73,1.26Z"/>
      <path class="cls-6" d="M199.52,119.15c-4.08,8.86-8.41,1.45-2-3,.47.73,1.86.36,2,3Z"/>
      <path class="cls-3" d="M195.52,217.08c-.75,1.92,1.75,8.78-1.48,8.98-3.4-1.36-.61-11.57,1.48-8.98Z"/>
      <path class="cls-3" d="M287.4,173.11c.03.12,1.55.5,1.82,1.67.72,3.14-2.12,5.14,3.17,8.32-.84.08-1.32-.77-2-1-.99-.33-2-.66-3-1s-2.5.88-2.03-1.52c.25-1.28,1.08-2.17,2.02-2.98-4.68-1.75.5-.48,0-3.49Z"/>
      <path class="cls-3" d="M434.19,206.08c1.65,6.6-6.36,6.05-4.98,1.5.51-1.66,3.51-1.68,4.98-1.5Z"/>
      <path class="cls-2" d="M380.26,21.22c-2.18,2.09-7.07-2.81-4.98-4.99,1.64-1.71,6.69,3.35,4.98,4.99Z"/>
      <path class="cls-3" d="M23.76,200.08c-2.83-3.72-3.52-5.77,1.99-5v4c-.44.14-.91.87-1.99,1Z"/>
      <path class="cls-3" d="M283.4,161.11c-2.53,1.22-3.15-1.88-3.48-1.86-.62.03-2.01,1.24-2.51.87-.25-.18.22-1.6,0-2.01,5-.49,4.29-.1,5.99,3Z"/>
      <path class="cls-3" d="M274.41,154.12c3.98-.95,6.42,1.89,2,2-.29-.39-.61,1.26-2-2Z"/>
      <path class="cls-5" d="M364.28,75.18c-.35.68-1.7-.58-.98-1.99.35-.68,1.7.58.98,1.99Z"/>
      <path class="cls-3" d="M274.41,201.08l-5.99,1.99,2.01-4.98,3.98,1c-.12.49-.01,1.38,0,2Z"/>
      <path class="cls-3" d="M271.42,176.1c.59.14,1.42-.15,2,0-.12,2.52,1,4.62-2,4-.35-1.25-1.78-.8-2-1,.09-.99-.06-2.01,0-3,.6.13,1.41-.14,2,0Z"/>
      <path class="cls-3" d="M277.41,173.11c.07.13,1.43-.64,2.19,1.41,1.9,5.13-.81,4.17-1.19,4.59v-1l-2.01-4.48,1.01-.52Z"/>
      <path class="cls-3" d="M279.41,187.09c-2.37-.79-1.86,1.87-2.01,1.98-2.33,1.68-3.15-3.15.01-3.98.73.58,1.74.8,2,2Z"/>
      <path class="cls-3" d="M278.41,178.1v1c-.13.14.14,1.25-.35,1.62-3.66,2.8-4.65-1.28-1.65-2.62.32.2,1.42-.13,2,0Z"/>
      <path class="cls-3" d="M279.41,199.1c-.34,1.45-1.61,2.29-2.99,1.98v-1.99s2.99,0,2.99,0Z"/>
      <path class="cls-3" d="M266.43,157.12c.67.36,4.52.43,0,1-.13-.19-.74-.14-.98-.49l.98-.51Z"/>
      <path class="cls-3" d="M280.91,186.1c.65.33.65.67,0,1v-1Z"/>
      <path class="cls-2" d="M421.03,64.07c-.36.48-2.95-.7-.8,2.6-2.7,2.95-5.44-9.02-5-9.47,2.45-.54,6.56,5.86,5.8,6.87Z"/>
      <path class="cls-3" d="M269.42,179.1c-.04.43.14.88-.04,1.31-2.33.28-1.42,4.56-3.44,3.68-2.38-1.03-2.8-7.54-3.51-9.98,3.57-.55,4.57,2.72,6.99,4.99Z"/>
    </g>
  </g>
</svg>